# xmcd
#
# Track frame offsets:
#	150
#	21751
#	43526
#	64479
#	87360
#	103771
#	115201
#	130797
#	151607
#	174485
#	185817
#	201081
#	223962
#	240405
#	251869
#	267460
#	278896
#	316693
#	339520
#
# Disc length: 4732 seconds
#
# Revision: 1
# Processed by: cddbd v1.5.1PL0 Copyright (c) Steve Scherf et al.
# Submitted via: audiograbber 1.83.01
#
DISCID=19127a13
DTITLE=Jeff Beck - Rough and Ready Reel Masters Alternate mixes and outtakes
DYEAR=1900
DGENRE=
TTITLE0=Got The Feeling (Jim Green Mix)
TTITLE1=Got The Feeling (High Level)
TTITLE2=Truth (Mix 1)
TTITLE3=New Song (Mix 1)
TTITLE4=Heads (Mix1)
TTITLE5=July 13Th (Mix 1)
TTITLE6=Got The Feeling (111576)
TTITLE7=Situation (111503)
TTITLE8=Short Business (111502)
TTITLE9=I'Ve Been Used (111504)
TTITLE10=New Ways-Train Train(111505)
TTITLE11=Jody (111506)
TTITLE12=Truth (111507)
TTITLE13=New Song (111508)
TTITLE14=Heads (111508)
TTITLE15=July 13Th
TTITLE16=Heads
TTITLE17=Raynes Park Blues
TTITLE18=Truth
EXTD=
EXTT0=
EXTT1=
EXTT2=
EXTT3=
EXTT4=
EXTT5=
EXTT6=
EXTT7=
EXTT8=
EXTT9=
EXTT10=
EXTT11=
EXTT12=
EXTT13=
EXTT14=
EXTT15=
EXTT16=
EXTT17=
EXTT18=
PLAYORDER=
